<?xml version="1.0" encoding="UTF-8"?>
<svg id="Layer_1" data-name="Layer 1" xmlns="http://www.w3.org/2000/svg" viewBox="0 0 92.43 92.43">
  <defs>
    <style>
      .cls-1 {
        fill: #2d2d2a;
      }
    </style>
  </defs>
  <polygon class="cls-1" points="46.21 0 48.23 23.2 54.24 .7 52.2 23.89 62.02 2.79 55.98 25.27 69.32 6.19 59.47 27.29 75.92 10.81 62.55 29.88 81.62 16.51 65.14 32.96 86.24 23.11 67.16 36.45 89.64 30.41 68.53 40.23 91.73 38.19 69.23 44.2 92.43 46.21 69.23 48.23 91.73 54.24 68.53 52.2 89.64 62.02 67.16 55.98 86.24 69.32 65.14 59.47 81.62 75.92 62.55 62.55 75.92 81.62 59.47 65.14 69.32 86.24 55.98 67.16 62.02 89.64 52.2 68.53 54.24 91.73 48.23 69.23 46.21 92.43 44.2 69.23 38.19 91.73 40.23 68.53 30.41 89.64 36.45 67.16 23.11 86.24 32.96 65.14 16.51 81.62 29.88 62.55 10.81 75.92 27.29 59.47 6.19 69.32 25.27 55.98 2.79 62.02 23.89 52.2 .7 54.24 23.2 48.23 0 46.21 23.2 44.2 .7 38.19 23.89 40.23 2.79 30.41 25.27 36.45 6.19 23.11 27.29 32.96 10.81 16.51 29.88 29.88 16.51 10.81 32.96 27.29 23.11 6.19 36.45 25.27 30.41 2.79 40.23 23.89 38.19 .7 44.2 23.2 46.21 0"/>
</svg>