<svg width="26" height="25" viewBox="0 0 26 25" fill="none" xmlns="http://www.w3.org/2000/svg">
<path d="M12.7347 6.09032C9.1876 6.09032 6.32647 8.95208 6.32647 12.5C6.32647 16.0479 9.1876 18.9097 12.7347 18.9097C16.2819 18.9097 19.143 16.0479 19.143 12.5C19.143 8.95208 16.2819 6.09032 12.7347 6.09032ZM12.7347 16.6671C10.4425 16.6671 8.56852 14.7983 8.56852 12.5C8.56852 10.2017 10.4369 8.33287 12.7347 8.33287C15.0325 8.33287 16.9009 10.2017 16.9009 12.5C16.9009 14.7983 15.027 16.6671 12.7347 16.6671ZM20.8998 5.82813C20.8998 6.65932 20.2305 7.32316 19.4051 7.32316C18.5741 7.32316 17.9104 6.65374 17.9104 5.82813C17.9104 5.00251 18.5797 4.33309 19.4051 4.33309C20.2305 4.33309 20.8998 5.00251 20.8998 5.82813ZM25.1441 7.34548C25.0493 5.3428 24.5919 3.56884 23.1251 2.10727C21.6639 0.64571 19.8903 0.188274 17.8881 0.0878612C15.8245 -0.0292871 9.63935 -0.0292871 7.57577 0.0878612C5.57912 0.182696 3.80555 0.640132 2.33874 2.1017C0.871923 3.56326 0.420166 5.33722 0.319775 7.3399C0.202653 9.40394 0.202653 15.5905 0.319775 17.6545C0.414588 19.6572 0.871923 21.4312 2.33874 22.8927C3.80555 24.3543 5.57354 24.8117 7.57577 24.9121C9.63935 25.0293 15.8245 25.0293 17.8881 24.9121C19.8903 24.8173 21.6639 24.3599 23.1251 22.8927C24.5864 21.4312 25.0437 19.6572 25.1441 17.6545C25.2612 15.5905 25.2612 9.40952 25.1441 7.34548ZM22.4782 19.8692C22.0431 20.9626 21.201 21.8049 20.1023 22.2456C18.457 22.8983 14.5529 22.7477 12.7347 22.7477C10.9165 22.7477 7.00689 22.8927 5.36718 22.2456C4.27404 21.8105 3.43188 20.9681 2.99128 19.8692C2.33874 18.2235 2.48932 14.3186 2.48932 12.5C2.48932 10.6814 2.34432 6.77089 2.99128 5.13082C3.4263 4.03743 4.26846 3.19508 5.36718 2.75438C7.01247 2.1017 10.9165 2.25232 12.7347 2.25232C14.5529 2.25232 18.4626 2.10727 20.1023 2.75438C21.1954 3.1895 22.0376 4.03185 22.4782 5.13082C23.1307 6.77647 22.9801 10.6814 22.9801 12.5C22.9801 14.3186 23.1307 18.2291 22.4782 19.8692Z" fill="#DC4141"/>
</svg>
