<svg width="26" height="25" viewBox="0 0 26 25" fill="none" xmlns="http://www.w3.org/2000/svg">
<path d="M23.3947 0H2.29034C1.32331 0 0.537598 0.809152 0.537598 1.80246V23.1975C0.537598 24.1908 1.32331 25 2.29034 25H23.3947C24.3618 25 25.153 24.1908 25.153 23.1975V1.80246C25.153 0.809152 24.3618 0 23.3947 0ZM7.97716 21.4286H4.32881V9.49777H7.98265V21.4286H7.97716ZM6.15298 7.8683C4.98265 7.8683 4.0376 6.9029 4.0376 5.71987C4.0376 4.53683 4.98265 3.57143 6.15298 3.57143C7.31782 3.57143 8.26837 4.53683 8.26837 5.71987C8.26837 6.90848 7.32331 7.8683 6.15298 7.8683ZM21.653 21.4286H18.0046V15.625C18.0046 14.2411 17.9772 12.4609 16.109 12.4609C14.2079 12.4609 13.9167 13.9676 13.9167 15.5246V21.4286H10.2684V9.49777H13.7684V11.1272H13.8178C14.3068 10.1897 15.4991 9.20201 17.2739 9.20201C20.9662 9.20201 21.653 11.6741 21.653 14.8884V21.4286Z" fill="#DC4141"/>
</svg>
