<?xml version="1.0" encoding="utf-8"?>
<!-- Generator: Adobe Illustrator 26.5.2, SVG Export Plug-In . SVG Version: 6.00 Build 0)  -->
<svg version="1.1" id="Layer_1" xmlns="http://www.w3.org/2000/svg" xmlns:xlink="http://www.w3.org/1999/xlink" x="0px" y="0px"
	 viewBox="0 0 68.1 68.1" style="enable-background:new 0 0 68.1 68.1;" xml:space="preserve">
<style type="text/css">
	.st0{fill:#F7E5CA;}
	.st1{fill:#1E555C;}
</style>
<g>
	<polygon class="st0" points="34.5,34.6 34.5,34.6 34.5,34.6 	"/>
	<path class="st0" d="M34.5,5.6c-16,0-29,13-29,29s13,29,29,29s29-13,29-29S50.6,5.6,34.5,5.6z M34.5,34.6
		C34.5,34.6,34.5,34.6,34.5,34.6c5,7.8,22.1,8.6,16.8,16.8C47,57.5,37.8,46.6,34.5,34.6c-2,9.1,9.5,21.8,0,23.8
		C27.2,59.6,28.3,45.5,34.5,34.6c-7.8,5-8.7,22.1-16.8,16.8C11.6,47.1,22.4,37.9,34.5,34.6c-9.1-2-21.8,9.5-23.8,0
		C9.5,27.3,23.6,28.4,34.5,34.6c-5-7.8-22.1-8.6-16.8-16.8C22,11.7,31.2,22.5,34.5,34.6C34.5,34.6,34.5,34.6,34.5,34.6
		C34.5,34.6,34.5,34.6,34.5,34.6C34.5,34.6,34.5,34.6,34.5,34.6c2-9.1-9.5-21.8,0-23.8C41.9,9.6,40.7,23.7,34.5,34.6
		C34.5,34.6,34.5,34.6,34.5,34.6c7.8-5,8.6-22.1,16.8-16.8C57.4,22.1,46.5,31.3,34.5,34.6c9.1,2,21.7-9.5,23.8,0
		C59.5,41.9,45.3,40.7,34.5,34.6z"/>
	<path class="st1" d="M51.3,51.4c5.3-8.2-11.8-9-16.8-16.8C37.8,46.6,47,57.5,51.3,51.4z"/>
	<path class="st1" d="M10.7,34.6c2,9.5,14.7-2,23.8,0C23.6,28.4,9.5,27.3,10.7,34.6z"/>
	<path class="st1" d="M17.7,17.8c-5.3,8.2,11.8,9,16.8,16.8C31.2,22.5,22,11.7,17.7,17.8z"/>
	<path class="st1" d="M17.7,51.4c8.1,5.3,9-11.8,16.8-16.8C22.4,37.9,11.6,47.1,17.7,51.4z"/>
	<path class="st1" d="M34.5,58.4c9.5-2-2-14.7,0-23.8C28.3,45.5,27.2,59.6,34.5,58.4z"/>
	<path class="st1" d="M58.3,34.6c-2.1-9.5-14.7,2-23.8,0c12-3.3,22.9-12.5,16.8-16.8c-8.2-5.3-9,11.8-16.8,16.8c0,0,0,0,0,0
		c6.2-10.9,7.4-25,0-23.8c-9.5,2,2,14.7,0,23.8c0,0,0,0,0,0c0,0,0,0,0,0c0,0,0,0,0,0c0,0,0,0,0,0c0,0,0,0,0,0c0,0,0,0,0,0
		c0,0,0,0,0,0C45.3,40.7,59.5,41.9,58.3,34.6z"/>
</g>
</svg>
