<?xml version="1.0" encoding="utf-8"?>
<!-- Generator: Adobe Illustrator 26.5.2, SVG Export Plug-In . SVG Version: 6.00 Build 0)  -->
<svg version="1.1" id="Layer_1" xmlns="http://www.w3.org/2000/svg" xmlns:xlink="http://www.w3.org/1999/xlink" x="0px" y="0px"
	 viewBox="0 0 123.9 123.9" style="enable-background:new 0 0 123.9 123.9;" xml:space="preserve">
<style type="text/css">
	.st0{fill:#1E555C;}
</style>
<polygon class="st0" points="61.9,0 62.8,31 65.3,0.1 64.5,31.1 68.8,0.4 66.2,31.3 72.1,0.9 67.9,31.6 75.5,1.5 69.6,31.9 
	78.8,2.3 71.2,32.4 82.1,3.4 72.8,33 85.3,4.6 74.4,33.6 88.4,5.9 75.9,34.3 91.4,7.5 77.4,35.1 94.4,9.2 78.9,36 97.2,11 80.3,37 
	100,13.1 81.6,38 102.6,15.2 82.9,39.2 105.2,17.5 84.2,40.4 107.5,20 85.3,41.6 109.8,22.6 86.4,42.9 111.9,25.3 87.4,44.3 
	113.8,28.1 88.3,45.7 115.6,31 89.2,47.2 117.2,34 90,48.7 118.7,37.1 90.7,50.3 120,40.2 91.2,51.9 121.1,43.5 91.8,53.5 122,46.8 
	92.2,55.2 122.8,50.1 92.5,56.9 123.3,53.5 92.7,58.6 123.7,56.8 92.9,60.3 123.9,60.3 92.9,62 123.9,63.7 92.9,63.7 123.7,67.1 
	92.7,65.4 123.3,70.5 92.5,67.1 122.8,73.8 92.2,68.7 122,77.2 91.8,70.4 121.1,80.5 91.2,72 120,83.7 90.7,73.6 118.7,86.9 
	90,75.2 117.2,89.9 89.2,76.7 115.6,92.9 88.3,78.2 113.8,95.9 87.4,79.6 111.9,98.7 86.4,81 109.8,101.4 85.3,82.3 107.5,103.9 
	84.2,83.6 105.2,106.4 82.9,84.8 102.6,108.7 81.6,85.9 100,110.9 80.3,86.9 97.2,112.9 78.9,87.9 94.4,114.8 77.4,88.8 91.4,116.5 
	75.9,89.6 88.4,118 74.4,90.3 85.3,119.4 72.8,91 82.1,120.6 71.2,91.5 78.8,121.6 69.6,92 75.5,122.4 67.9,92.4 72.1,123.1 
	66.2,92.7 68.8,123.6 64.5,92.8 65.3,123.8 62.8,92.9 61.9,123.9 61.1,92.9 58.5,123.8 59.4,92.8 55.1,123.6 57.7,92.7 51.7,123.1 
	56,92.4 48.4,122.4 54.3,92 45.1,121.6 52.7,91.5 41.8,120.6 51.1,91 38.6,119.4 49.5,90.3 35.5,118 48,89.6 32.5,116.5 46.5,88.8 
	29.5,114.8 45,87.9 26.6,112.9 43.6,86.9 23.9,110.9 42.2,85.9 21.2,108.7 41,84.8 18.7,106.4 39.7,83.6 16.4,103.9 38.6,82.3 
	14.1,101.4 37.5,81 12,98.7 36.5,79.6 10.1,95.9 35.5,78.2 8.3,92.9 34.7,76.7 6.7,89.9 33.9,75.2 5.2,86.9 33.2,73.6 3.9,83.7 
	32.6,72 2.8,80.5 32.1,70.4 1.9,77.2 31.7,68.7 1.1,73.8 31.4,67.1 0.6,70.5 31.1,65.4 0.2,67.1 31,63.7 0,63.7 31,62 0,60.3 
	31,60.3 0.2,56.8 31.1,58.6 0.6,53.5 31.4,56.9 1.1,50.1 31.7,55.2 1.9,46.8 32.1,53.5 2.8,43.5 32.6,51.9 3.9,40.2 33.2,50.3 
	5.2,37.1 33.9,48.7 6.7,34 34.7,47.2 8.3,31 35.5,45.7 10.1,28.1 36.5,44.3 12,25.3 37.5,42.9 14.1,22.6 38.6,41.6 16.4,20 
	39.7,40.4 18.7,17.5 41,39.2 21.2,15.2 42.2,38 23.9,13.1 43.6,37 26.6,11 45,36 29.5,9.2 46.5,35.1 32.5,7.5 48,34.3 35.5,5.9 
	49.5,33.6 38.6,4.6 51.1,33 41.8,3.4 52.7,32.4 45.1,2.3 54.3,31.9 48.4,1.5 56,31.6 51.7,0.9 57.7,31.3 55.1,0.4 59.4,31.1 
	58.5,0.1 61.1,31 "/>
</svg>
